<svg width="28" height="24" viewBox="0 0 28 24" fill="none" xmlns="http://www.w3.org/2000/svg">
  <path
    d="M21.2441 19.2185C20.3496 19.9745 19.147 20.4375 17.8244 20.4375C15.0617 20.4375 12.8222 18.4175 12.8222 15.9258C12.8222 13.434 15.0617 11.4141 17.8244 11.4141C20.587 11.4141 22.8266 13.434 22.8266 15.9258C22.8266 16.4804 22.7156 17.0116 22.5127 17.5024L25.1064 19.0924C25.6286 19.4126 25.7642 20.054 25.4093 20.525C25.0543 20.9961 24.3432 21.1184 23.8209 20.7982L21.2441 19.2185ZM2.7918 3.44531C2.16035 3.44531 1.64844 2.98359 1.64844 2.41406C1.64844 1.84453 2.16035 1.38281 2.7918 1.38281H24.4637C25.0951 1.38281 25.607 1.84453 25.607 2.41406C25.607 2.98359 25.0951 3.44531 24.4637 3.44531H2.7918ZM2.7918 15.1289C2.16035 15.1289 1.64844 14.6672 1.64844 14.0977C1.64844 13.5281 2.16035 13.0664 2.7918 13.0664H9.31414C9.94559 13.0664 10.4575 13.5281 10.4575 14.0977C10.4575 14.6672 9.94559 15.1289 9.31414 15.1289H2.7918ZM2.7918 9.29297C2.16035 9.29297 1.64844 8.83125 1.64844 8.26172C1.64844 7.69219 2.16035 7.23047 2.7918 7.23047H24.4637C25.0951 7.23047 25.607 7.69219 25.607 8.26172C25.607 8.83125 25.0951 9.29297 24.4637 9.29297H2.7918ZM2.7918 20.9883C2.16035 20.9883 1.64844 20.5266 1.64844 19.957C1.64844 19.3875 2.16035 18.9258 2.7918 18.9258H9.31414C9.94559 18.9258 10.4575 19.3875 10.4575 19.957C10.4575 20.5266 9.94559 20.9883 9.31414 20.9883H2.7918ZM17.8244 18.375C19.3241 18.375 20.5399 17.2785 20.5399 15.9258C20.5399 14.5731 19.3241 13.4766 17.8244 13.4766C16.3247 13.4766 15.1089 14.5731 15.1089 15.9258C15.1089 17.2785 16.3247 18.375 17.8244 18.375Z"
    fill="black" />
</svg>