<svg width="49" height="49" viewBox="0 0 49 49" fill="none" xmlns="http://www.w3.org/2000/svg">
  <g clip-path="url(#clip0_2031_1695)">
    <path
      d="M42.9667 0H6.03328C2.70119 0 0 2.70119 0 6.03328V42.9667C0 46.2988 2.70119 49 6.03328 49H42.9667C46.2988 49 49 46.2988 49 42.9667V6.03328C49 2.70119 46.2988 0 42.9667 0Z"
      fill="white" />
    <path
      d="M25.4632 8.09448C15.6083 8.09448 7.59155 16.1112 7.59155 25.9662C7.59155 32.8758 11.5351 38.878 17.2884 41.8518C19.1318 42.6141 21.0712 43.073 23.0287 43.2234V36.2152C20.4956 35.9041 18.0454 34.784 16.1061 32.8447C13.4278 30.1664 12.3051 26.5158 12.7329 23.0182H18.3125C17.7499 25.1987 18.3203 27.6151 20.0289 29.3238C22.5983 31.8931 26.7648 31.8931 29.3342 29.3238C31.9036 26.7544 31.9036 22.5878 29.3342 20.0184C27.6256 18.3098 25.2117 17.7394 23.0287 18.3021V12.7225C26.5263 12.2947 30.1768 13.4174 32.8551 16.0956C34.7945 18.035 35.9171 20.4877 36.2257 23.0182H43.0834C41.673 14.5633 34.3096 8.09708 25.4606 8.09708H25.4632V8.09448Z"
      fill="#273075" />
    <path
      d="M25.2377 6.92505C14.9809 6.92505 6.63745 15.2685 6.63745 25.5253C6.63745 30.4774 8.58718 34.981 11.7555 38.3178C11.95 38.4967 12.1496 38.6704 12.3492 38.839C9.09017 35.5203 7.07562 30.9726 7.07562 25.9661C7.07562 15.8259 15.3257 7.57582 25.4659 7.57582C33.1663 7.57582 39.7725 12.3335 42.5079 19.0642C42.2875 18.3305 42.0204 17.6097 41.7119 16.9019C38.598 10.9775 32.3859 6.92764 25.2403 6.92764H25.2377V6.92505Z"
      fill="#273075" />
    <path
      d="M25.2377 6.40661C29.8216 6.40661 34.0322 8.02965 37.3302 10.7287C29.9538 3.82165 18.3773 3.96425 11.1799 11.1617C5.53033 16.8112 4.23137 25.1572 7.27005 32.0539C6.52593 30.016 6.12147 27.8174 6.12147 25.5228C6.12147 14.9808 14.6982 6.40401 25.2403 6.40401L25.2377 6.40661Z"
      fill="#273075" />
    <path
      d="M41.7793 32.0927C42.4766 32.0927 43.0419 31.5274 43.0419 30.83C43.0419 30.1327 42.4766 29.5674 41.7793 29.5674C41.0819 29.5674 40.5166 30.1327 40.5166 30.83C40.5166 31.5274 41.0819 32.0927 41.7793 32.0927Z"
      fill="#273075" />
    <path d="M43.0446 33.4695H40.6074V43.2207H43.0446V33.4695Z" fill="#273075" />
    <path
      d="M36.3448 33.4694V34.5299C35.4685 33.7521 34.3173 33.2776 33.0546 33.2776C30.3089 33.2776 28.0818 35.5047 28.0818 38.2504C28.0818 40.9961 30.3089 43.2233 33.0546 43.2233C34.3173 43.2233 35.4685 42.7488 36.3448 41.971V43.2233H38.782V33.472H36.3448V33.4694ZM33.0987 40.6124C31.7738 40.6124 30.7004 39.539 30.7004 38.2141C30.7004 36.8893 31.7738 35.8159 33.0987 35.8159C34.4236 35.8159 35.497 36.8893 35.497 38.2141C35.497 39.539 34.4236 40.6124 33.0987 40.6124Z"
      fill="#273075" />
  </g>
  <defs>
    <clipPath id="clip0_2031_1695">
      <rect width="49" height="49" fill="white" />
    </clipPath>
  </defs>
</svg>