<svg width="29" height="29" viewBox="0 0 29 29" fill="none" xmlns="http://www.w3.org/2000/svg">
  <path
    d="M21.1458 20.5416C22.8375 20.1791 24.1667 18.7291 24.1667 16.9166C24.1667 14.8625 22.5958 13.2916 20.5417 13.2916C20.0583 13.2916 19.6958 13.4125 19.3333 13.5333V13.2916C19.3333 10.6333 17.1583 8.45829 14.5 8.45829C11.8417 8.45829 9.66667 10.6333 9.66667 13.2916C9.66667 13.775 9.7875 14.1375 9.7875 14.6208C9.54583 14.5 9.30417 14.5 9.0625 14.5C7.37083 14.5 6.04167 15.8291 6.04167 17.5208C6.04167 19.2125 7.37083 20.5416 9.0625 20.5416H21.1458ZM21.1458 22.9583H9.0625C6.04167 22.9583 3.625 20.5416 3.625 17.5208C3.625 15.1041 5.19583 13.05 7.25 12.325C7.73333 8.82079 10.7542 6.04163 14.5 6.04163C17.6417 6.04163 20.4208 8.09579 21.3875 10.875C24.2875 11.2375 26.5833 13.775 26.5833 16.9166C26.5833 20.0583 24.1667 22.5958 21.1458 22.9583Z"
    fill="#444444" />
</svg>