<svg width="24" height="24" viewBox="0 0 24 24" fill="none" xmlns="http://www.w3.org/2000/svg">
  <path
    d="M12 14C13.1046 14 14 13.1046 14 12C14 10.8954 13.1046 10 12 10C10.8954 10 10 10.8954 10 12C10 13.1046 10.8954 14 12 14Z"
    stroke="white" stroke-width="2" stroke-linecap="round" stroke-linejoin="round" />
  <path
    d="M16.2401 7.76005C16.7979 8.31729 17.2405 8.97902 17.5424 9.70741C17.8444 10.4358 17.9998 11.2166 17.9998 12.0051C17.9998 12.7935 17.8444 13.5743 17.5424 14.3027C17.2405 15.0311 16.7979 15.6928 16.2401 16.2501M7.76006 16.2401C7.2022 15.6828 6.75965 15.0211 6.4577 14.2927C6.15576 13.5643 6.00034 12.7835 6.00034 11.9951C6.00034 11.2066 6.15576 10.4258 6.4577 9.69741C6.75965 8.96902 7.2022 8.30729 7.76006 7.75005M19.0701 4.93005C20.9448 6.80533 21.9979 9.34841 21.9979 12.0001C21.9979 14.6517 20.9448 17.1948 19.0701 19.0701M4.93006 19.0701C3.05535 17.1948 2.0022 14.6517 2.0022 12.0001C2.0022 9.34841 3.05535 6.80533 4.93006 4.93005"
    stroke="white" stroke-width="2" stroke-linecap="round" stroke-linejoin="round" />
</svg>