<svg width="26" height="26" viewBox="0 0 26 26" fill="none" xmlns="http://www.w3.org/2000/svg">
  <path
    d="M19.2748 23.4H6.93343C5.78416 23.4 4.68196 22.9435 3.8693 22.1308C3.05664 21.3181 2.6001 20.2159 2.6001 19.0667V10.2007C2.6001 9.05139 3.05664 7.94919 3.8693 7.13654C4.68196 6.32388 5.78416 5.86733 6.93343 5.86733H19.2748C20.424 5.86733 21.5262 6.32388 22.3389 7.13654C23.1515 7.94919 23.6081 9.05139 23.6081 10.2007V19.0667C23.6081 20.2159 23.1515 21.3181 22.3389 22.1308C21.5262 22.9435 20.424 23.4 19.2748 23.4ZM6.93343 7.60067C6.24387 7.60067 5.58255 7.87459 5.09495 8.36219C4.60736 8.84978 4.33343 9.5111 4.33343 10.2007V19.0667C4.33343 19.7562 4.60736 20.4175 5.09495 20.9051C5.58255 21.3927 6.24387 21.6667 6.93343 21.6667H19.2748C19.9643 21.6667 20.6256 21.3927 21.1132 20.9051C21.6008 20.4175 21.8748 19.7562 21.8748 19.0667V10.2007C21.8748 9.5111 21.6008 8.84978 21.1132 8.36219C20.6256 7.87459 19.9643 7.60067 19.2748 7.60067H6.93343Z"
    fill="#282424" />
  <path
    d="M18.1134 7.08067C17.9996 7.08067 17.8869 7.05825 17.7818 7.0147C17.6766 6.97114 17.5811 6.90731 17.5006 6.82683C17.4201 6.74635 17.3563 6.65081 17.3127 6.54566C17.2692 6.44051 17.2468 6.32781 17.2468 6.214C17.2468 5.52444 16.9728 4.86312 16.4852 4.37552C15.9976 3.88793 15.3363 3.614 14.6468 3.614H11.5874C10.8979 3.614 10.2365 3.88793 9.74895 4.37552C9.26136 4.86312 8.98743 5.52444 8.98743 6.214C8.98743 6.44386 8.89612 6.6643 8.73359 6.82683C8.57106 6.98936 8.35062 7.08067 8.12076 7.08067C7.89091 7.08067 7.67047 6.98936 7.50794 6.82683C7.34541 6.6643 7.2541 6.44386 7.2541 6.214C7.2541 5.06473 7.71064 3.96253 8.5233 3.14987C9.33596 2.33721 10.4382 1.88067 11.5874 1.88067H14.6468C15.2158 1.88067 15.7793 1.99275 16.3051 2.21052C16.8308 2.42829 17.3085 2.74749 17.7109 3.14987C18.1133 3.55226 18.4325 4.02996 18.6502 4.55571C18.868 5.08145 18.9801 5.64494 18.9801 6.214C18.9801 6.44386 18.8888 6.6643 18.7263 6.82683C18.5637 6.98936 18.3433 7.08067 18.1134 7.08067ZM22.7414 12.61H3.46676C3.23691 12.61 3.01647 12.5187 2.85394 12.3562C2.69141 12.1936 2.6001 11.9732 2.6001 11.7433C2.6001 11.5135 2.69141 11.293 2.85394 11.1305C3.01647 10.968 3.23691 10.8767 3.46676 10.8767H22.7414C22.9713 10.8767 23.1917 10.968 23.3543 11.1305C23.5168 11.293 23.6081 11.5135 23.6081 11.7433C23.6081 11.9732 23.5168 12.1936 23.3543 12.3562C23.1917 12.5187 22.9713 12.61 22.7414 12.61Z"
    fill="#282424" />
  <path
    d="M13.1213 16.4667C11.9664 16.4668 10.8578 16.0122 10.0355 15.2012C9.21321 14.3903 8.74324 13.2881 8.72729 12.1333H10.4606C10.44 12.4949 10.4933 12.8569 10.6175 13.1972C10.7417 13.5374 10.934 13.8487 11.1827 14.112C11.4314 14.3753 11.7312 14.5851 12.0638 14.7285C12.3964 14.8718 12.7548 14.9458 13.117 14.9458C13.4791 14.9458 13.8375 14.8718 14.1701 14.7285C14.5027 14.5851 14.8026 14.3753 15.0513 14.112C15.3 13.8487 15.4923 13.5374 15.6164 13.1972C15.7406 12.8569 15.794 12.4949 15.7733 12.1333C15.7733 12.0195 15.7957 11.9068 15.8393 11.8017C15.8828 11.6965 15.9467 11.601 16.0271 11.5205C16.1076 11.44 16.2032 11.3762 16.3083 11.3326C16.4135 11.2891 16.5261 11.2667 16.64 11.2667C16.7538 11.2667 16.8665 11.2891 16.9716 11.3326C17.0768 11.3762 17.1723 11.44 17.2528 11.5205C17.3333 11.601 17.3971 11.6965 17.4407 11.8017C17.4842 11.9068 17.5066 12.0195 17.5066 12.1333C17.4907 13.2866 17.0219 14.3875 16.2015 15.1982C15.381 16.0089 14.2747 16.4645 13.1213 16.4667Z"
    fill="#282424" />
</svg>